# MagicaVoxel @ Ephtracy

# group
o 

# material
mtllib Monster.mtl
usemtl palette

# normals
vn -1 0 0
vn 1 0 0
vn 0 0 1
vn 0 0 -1
vn 0 -1 0
vn 0 1 0

# texcoords
vt 0.841797 0.5
vt 0.892578 0.5
vt 0.974609 0.5
vt 0.982422 0.5
vt 0.986328 0.5
vt 0.994141 0.5

# verts
v -0.5 0 0.5
v -0.5 0 -0.5
v -0.5 0.1 0.4
v -0.5 0.1 -0.4
v -0.5 0.3 0.4
v -0.5 0.3 -0.4
v -0.5 0.4 0.5
v -0.5 0.4 -0.5
v -0.4 0.4 0.3
v -0.4 0.4 -0.3
v -0.4 0.5 0.3
v -0.4 0.5 -0.3
v -0.3 0.5 0.3
v -0.3 0.5 -0.3
v -0.3 0.6 0.3
v -0.3 0.6 -0.3
v -0.2 0.4 0.4
v -0.2 0.4 0.3
v -0.2 0.4 -0.3
v -0.2 0.4 -0.4
v -0.2 0.6 0.4
v -0.2 0.6 0.3
v -0.2 0.6 -0.3
v -0.2 0.6 -0.4
v -0.2 0.7 0.5
v -0.2 0.7 0.4
v -0.2 0.8 0.3
v -0.2 0.8 0.2
v -0.2 0.8 -0.2
v -0.2 0.8 -0.3
v -0.2 0.9 0.5
v -0.2 0.9 0.4
v -0.2 0.9 0.2
v -0.2 0.9 -0.2
v -0.1 0.6 0.5
v -0.1 0.6 0.4
v -0.1 0.6 0.3
v -0.1 0.7 0.5
v -0.1 0.7 0.4
v -0.1 0.8 0.3
v -0.1 0.8 0.2
v -0.1 0.9 0.5
v -0.1 0.9 0.4
v -0.1 0.9 0.2
v -0.1 0.9 0.1
v -0.1 0.9 -0.1
v -0.1 1 0.5
v -0.1 1 0.4
v -0.1 1 0.1
v -0.1 1 -0.1
v 0.1 0.7 0.5
v 0.1 0.7 0.4
v 0.1 0.9 0.5
v 0.1 0.9 0.4
v -0.1 0.7 0.5
v -0.1 0.7 0.4
v -0.1 0.9 0.5
v -0.1 0.9 0.4
v 0.1 0.6 0.5
v 0.1 0.6 0.4
v 0.1 0.6 0.3
v 0.1 0.7 0.5
v 0.1 0.7 0.4
v 0.1 0.8 0.3
v 0.1 0.8 0.2
v 0.1 0.9 0.5
v 0.1 0.9 0.4
v 0.1 0.9 0.2
v 0.1 0.9 0.1
v 0.1 0.9 -0.1
v 0.1 1 0.5
v 0.1 1 0.4
v 0.1 1 0.1
v 0.1 1 -0.1
v 0.2 0.4 0.4
v 0.2 0.4 0.3
v 0.2 0.4 -0.3
v 0.2 0.4 -0.4
v 0.2 0.6 0.4
v 0.2 0.6 0.3
v 0.2 0.6 -0.3
v 0.2 0.6 -0.4
v 0.2 0.7 0.5
v 0.2 0.7 0.4
v 0.2 0.8 0.3
v 0.2 0.8 0.2
v 0.2 0.8 -0.2
v 0.2 0.8 -0.3
v 0.2 0.9 0.5
v 0.2 0.9 0.4
v 0.2 0.9 0.2
v 0.2 0.9 -0.2
v 0.3 0.5 0.3
v 0.3 0.5 -0.3
v 0.3 0.6 0.3
v 0.3 0.6 -0.3
v 0.4 0.4 0.3
v 0.4 0.4 -0.3
v 0.4 0.5 0.3
v 0.4 0.5 -0.3
v 0.5 0 0.5
v 0.5 0 -0.5
v 0.5 0.1 0.4
v 0.5 0.1 -0.4
v 0.5 0.3 0.4
v 0.5 0.3 -0.4
v 0.5 0.4 0.5
v 0.5 0.4 -0.5
v -0.5 0 0.5
v -0.5 0.4 0.5
v -0.4 0 0.5
v -0.4 0.4 0.5
v -0.3 0.1 0.5
v -0.3 0.3 0.5
v -0.2 0.7 0.5
v -0.2 0.9 0.5
v -0.1 0.6 0.5
v -0.1 0.7 0.5
v -0.1 0.9 0.5
v -0.1 1 0.5
v 0.1 0.6 0.5
v 0.1 0.7 0.5
v 0.1 0.9 0.5
v 0.1 1 0.5
v 0.2 0.7 0.5
v 0.2 0.9 0.5
v 0.3 0.1 0.5
v 0.3 0.3 0.5
v 0.4 0 0.5
v 0.4 0.4 0.5
v 0.5 0 0.5
v 0.5 0.4 0.5
v -0.2 0.4 0.4
v -0.2 0.6 0.4
v -0.1 0.6 0.4
v -0.1 0.7 0.4
v -0.1 0.9 0.4
v 0.1 0.6 0.4
v 0.1 0.7 0.4
v 0.1 0.9 0.4
v 0.2 0.4 0.4
v 0.2 0.6 0.4
v -0.4 0.4 0.3
v -0.4 0.5 0.3
v -0.3 0.5 0.3
v -0.3 0.6 0.3
v -0.2 0.4 0.3
v -0.2 0.6 0.3
v -0.2 0.8 0.3
v -0.1 0.6 0.3
v -0.1 0.8 0.3
v 0.1 0.6 0.3
v 0.1 0.8 0.3
v 0.2 0.4 0.3
v 0.2 0.6 0.3
v 0.2 0.8 0.3
v 0.3 0.5 0.3
v 0.3 0.6 0.3
v 0.4 0.4 0.3
v 0.4 0.5 0.3
v -0.2 0.8 0.2
v -0.2 0.9 0.2
v -0.1 0.8 0.2
v -0.1 0.9 0.2
v 0.1 0.8 0.2
v 0.1 0.9 0.2
v 0.2 0.8 0.2
v 0.2 0.9 0.2
v -0.1 0.9 0.1
v -0.1 1 0.1
v 0.1 0.9 0.1
v 0.1 1 0.1
v -0.2 0.7 0.4
v -0.2 0.9 0.4
v -0.1 0.7 0.4
v -0.1 0.9 0.4
v -0.1 1 0.4
v 0.1 0.7 0.4
v 0.1 0.9 0.4
v 0.1 1 0.4
v 0.2 0.7 0.4
v 0.2 0.9 0.4
v -0.1 0.9 -0.1
v -0.1 1 -0.1
v 0.1 0.9 -0.1
v 0.1 1 -0.1
v -0.2 0.8 -0.2
v -0.2 0.9 -0.2
v 0.2 0.8 -0.2
v 0.2 0.9 -0.2
v -0.4 0.4 -0.3
v -0.4 0.5 -0.3
v -0.3 0.5 -0.3
v -0.3 0.6 -0.3
v -0.2 0.4 -0.3
v -0.2 0.6 -0.3
v -0.2 0.8 -0.3
v 0.2 0.4 -0.3
v 0.2 0.6 -0.3
v 0.2 0.8 -0.3
v 0.3 0.5 -0.3
v 0.3 0.6 -0.3
v 0.4 0.4 -0.3
v 0.4 0.5 -0.3
v -0.2 0.4 -0.4
v -0.2 0.6 -0.4
v 0.2 0.4 -0.4
v 0.2 0.6 -0.4
v -0.5 0 -0.5
v -0.5 0.4 -0.5
v -0.4 0 -0.5
v -0.4 0.4 -0.5
v -0.3 0.2 -0.5
v -0.3 0.3 -0.5
v -0.1 0.2 -0.5
v -0.1 0.3 -0.5
v 0.1 0.2 -0.5
v 0.1 0.3 -0.5
v 0.3 0.2 -0.5
v 0.3 0.3 -0.5
v 0.4 0 -0.5
v 0.4 0.4 -0.5
v 0.5 0 -0.5
v 0.5 0.4 -0.5
v -0.5 0 0.5
v -0.4 0 0.5
v 0.4 0 0.5
v 0.5 0 0.5
v -0.5 0 -0.5
v -0.4 0 -0.5
v 0.4 0 -0.5
v 0.5 0 -0.5
v -0.1 0.6 0.5
v 0.1 0.6 0.5
v -0.1 0.6 0.4
v 0.1 0.6 0.4
v -0.2 0.7 0.5
v -0.1 0.7 0.5
v 0.1 0.7 0.5
v 0.2 0.7 0.5
v -0.2 0.7 0.4
v -0.1 0.7 0.4
v 0.1 0.7 0.4
v 0.2 0.7 0.4
v -0.1 0.9 0.5
v 0.1 0.9 0.5
v -0.1 0.9 0.4
v 0.1 0.9 0.4
v -0.5 0.4 0.5
v -0.4 0.4 0.5
v 0.4 0.4 0.5
v 0.5 0.4 0.5
v -0.2 0.4 0.4
v 0.2 0.4 0.4
v -0.4 0.4 0.3
v -0.2 0.4 0.3
v 0.2 0.4 0.3
v 0.4 0.4 0.3
v -0.4 0.4 -0.3
v -0.2 0.4 -0.3
v 0.2 0.4 -0.3
v 0.4 0.4 -0.3
v -0.2 0.4 -0.4
v 0.2 0.4 -0.4
v -0.5 0.4 -0.5
v -0.4 0.4 -0.5
v 0.4 0.4 -0.5
v 0.5 0.4 -0.5
v -0.4 0.5 0.3
v -0.3 0.5 0.3
v 0.3 0.5 0.3
v 0.4 0.5 0.3
v -0.4 0.5 -0.3
v -0.3 0.5 -0.3
v 0.3 0.5 -0.3
v 0.4 0.5 -0.3
v -0.2 0.6 0.4
v -0.1 0.6 0.4
v 0.1 0.6 0.4
v 0.2 0.6 0.4
v -0.3 0.6 0.3
v -0.2 0.6 0.3
v -0.1 0.6 0.3
v 0.1 0.6 0.3
v 0.2 0.6 0.3
v 0.3 0.6 0.3
v -0.3 0.6 -0.3
v -0.2 0.6 -0.3
v 0.2 0.6 -0.3
v 0.3 0.6 -0.3
v -0.2 0.6 -0.4
v 0.2 0.6 -0.4
v -0.1 0.7 0.5
v 0.1 0.7 0.5
v -0.1 0.7 0.4
v 0.1 0.7 0.4
v -0.2 0.8 0.3
v -0.1 0.8 0.3
v 0.1 0.8 0.3
v 0.2 0.8 0.3
v -0.2 0.8 0.2
v -0.1 0.8 0.2
v 0.1 0.8 0.2
v 0.2 0.8 0.2
v -0.2 0.8 -0.2
v 0.2 0.8 -0.2
v -0.2 0.8 -0.3
v 0.2 0.8 -0.3
v -0.2 0.9 0.5
v -0.1 0.9 0.5
v 0.1 0.9 0.5
v 0.2 0.9 0.5
v -0.2 0.9 0.4
v -0.1 0.9 0.4
v 0.1 0.9 0.4
v 0.2 0.9 0.4
v -0.2 0.9 0.2
v -0.1 0.9 0.2
v 0.1 0.9 0.2
v 0.2 0.9 0.2
v -0.1 0.9 0.1
v 0.1 0.9 0.1
v -0.1 0.9 -0.1
v 0.1 0.9 -0.1
v -0.2 0.9 -0.2
v 0.2 0.9 -0.2
v -0.1 1 0.5
v 0.1 1 0.5
v -0.1 1 0.4
v 0.1 1 0.4
v -0.1 1 0.1
v 0.1 1 0.1
v -0.1 1 -0.1
v 0.1 1 -0.1

# faces
f 3/5/1 2/5/1 1/5/1
f 4/5/1 2/5/1 3/5/1
f 5/5/1 3/5/1 1/5/1
f 5/3/1 4/3/1 3/3/1
f 6/5/1 2/5/1 4/5/1
f 6/3/1 4/3/1 5/3/1
f 7/5/1 5/5/1 1/5/1
f 7/5/1 6/5/1 5/5/1
f 8/5/1 2/5/1 6/5/1
f 8/5/1 6/5/1 7/5/1
f 11/2/1 10/2/1 9/2/1
f 12/2/1 10/2/1 11/2/1
f 15/2/1 14/2/1 13/2/1
f 16/2/1 14/2/1 15/2/1
f 21/2/1 18/2/1 17/2/1
f 22/2/1 18/2/1 21/2/1
f 23/2/1 20/2/1 19/2/1
f 24/2/1 20/2/1 23/2/1
f 27/2/1 23/2/1 22/2/1
f 28/2/1 23/2/1 27/2/1
f 29/2/1 23/2/1 28/2/1
f 30/2/1 23/2/1 29/2/1
f 31/4/1 26/4/1 25/4/1
f 32/4/1 26/4/1 31/4/1
f 33/2/1 29/2/1 28/2/1
f 34/2/1 29/2/1 33/2/1
f 38/4/1 36/4/1 35/4/1
f 38/4/1 37/4/1 36/4/1
f 39/4/1 37/4/1 38/4/1
f 40/4/1 37/4/1 39/4/1
f 43/4/1 40/4/1 39/4/1
f 43/4/1 41/4/1 40/4/1
f 44/4/1 41/4/1 43/4/1
f 47/4/1 43/4/1 42/4/1
f 48/4/1 43/4/1 47/4/1
f 49/2/1 46/2/1 45/2/1
f 50/2/1 46/2/1 49/2/1
f 53/4/1 52/4/1 51/4/1
f 54/4/1 52/4/1 53/4/1
f 55/4/2 56/4/2 57/4/2
f 57/4/2 56/4/2 58/4/2
f 59/4/2 60/4/2 62/4/2
f 60/4/2 61/4/2 62/4/2
f 62/4/2 61/4/2 63/4/2
f 63/4/2 61/4/2 64/4/2
f 63/4/2 64/4/2 67/4/2
f 64/4/2 65/4/2 67/4/2
f 67/4/2 65/4/2 68/4/2
f 66/4/2 67/4/2 71/4/2
f 71/4/2 67/4/2 72/4/2
f 69/2/2 70/2/2 73/2/2
f 73/2/2 70/2/2 74/2/2
f 75/2/2 76/2/2 79/2/2
f 79/2/2 76/2/2 80/2/2
f 77/2/2 78/2/2 81/2/2
f 81/2/2 78/2/2 82/2/2
f 80/2/2 81/2/2 85/2/2
f 85/2/2 81/2/2 86/2/2
f 86/2/2 81/2/2 87/2/2
f 87/2/2 81/2/2 88/2/2
f 83/4/2 84/4/2 89/4/2
f 89/4/2 84/4/2 90/4/2
f 86/2/2 87/2/2 91/2/2
f 91/2/2 87/2/2 92/2/2
f 93/2/2 94/2/2 95/2/2
f 95/2/2 94/2/2 96/2/2
f 97/2/2 98/2/2 99/2/2
f 99/2/2 98/2/2 100/2/2
f 101/5/2 102/5/2 103/5/2
f 103/5/2 102/5/2 104/5/2
f 101/5/2 103/5/2 105/5/2
f 103/3/2 104/3/2 105/3/2
f 104/5/2 102/5/2 106/5/2
f 105/3/2 104/3/2 106/3/2
f 101/5/2 105/5/2 107/5/2
f 105/5/2 106/5/2 107/5/2
f 106/5/2 102/5/2 108/5/2
f 107/5/2 106/5/2 108/5/2
f 111/5/3 110/5/3 109/5/3
f 112/5/3 110/5/3 111/5/3
f 113/2/3 112/2/3 111/2/3
f 114/2/3 112/2/3 113/2/3
f 118/4/3 116/4/3 115/4/3
f 119/4/3 116/4/3 118/4/3
f 121/4/3 118/4/3 117/4/3
f 122/4/3 118/4/3 121/4/3
f 123/4/3 120/4/3 119/4/3
f 124/4/3 120/4/3 123/4/3
f 125/4/3 123/4/3 122/4/3
f 126/4/3 123/4/3 125/4/3
f 127/2/3 113/2/3 111/2/3
f 127/6/3 114/6/3 113/6/3
f 128/2/3 112/2/3 114/2/3
f 128/6/3 114/6/3 127/6/3
f 129/2/3 127/2/3 111/2/3
f 129/2/3 128/2/3 127/2/3
f 130/2/3 112/2/3 128/2/3
f 130/2/3 128/2/3 129/2/3
f 131/5/3 130/5/3 129/5/3
f 132/5/3 130/5/3 131/5/3
f 135/2/3 134/2/3 133/2/3
f 138/2/3 135/2/3 133/2/3
f 139/4/3 137/4/3 136/4/3
f 140/4/3 137/4/3 139/4/3
f 141/2/3 138/2/3 133/2/3
f 142/2/3 138/2/3 141/2/3
f 145/2/3 144/2/3 143/2/3
f 147/2/3 145/2/3 143/2/3
f 147/2/3 146/2/3 145/2/3
f 148/2/3 146/2/3 147/2/3
f 150/2/3 149/2/3 148/2/3
f 151/2/3 149/2/3 150/2/3
f 155/2/3 153/2/3 152/2/3
f 156/2/3 153/2/3 155/2/3
f 157/2/3 155/2/3 154/2/3
f 158/2/3 155/2/3 157/2/3
f 159/2/3 157/2/3 154/2/3
f 160/2/3 157/2/3 159/2/3
f 163/2/3 162/2/3 161/2/3
f 164/2/3 162/2/3 163/2/3
f 167/2/3 166/2/3 165/2/3
f 168/2/3 166/2/3 167/2/3
f 171/2/3 170/2/3 169/2/3
f 172/2/3 170/2/3 171/2/3
f 173/4/4 174/4/4 175/4/4
f 175/4/4 174/4/4 176/4/4
f 176/4/4 177/4/4 179/4/4
f 179/4/4 177/4/4 180/4/4
f 178/4/4 179/4/4 181/4/4
f 181/4/4 179/4/4 182/4/4
f 183/2/4 184/2/4 185/2/4
f 185/2/4 184/2/4 186/2/4
f 187/2/4 188/2/4 189/2/4
f 189/2/4 188/2/4 190/2/4
f 191/2/4 192/2/4 193/2/4
f 191/2/4 193/2/4 195/2/4
f 193/2/4 194/2/4 195/2/4
f 195/2/4 194/2/4 196/2/4
f 196/2/4 197/2/4 199/2/4
f 199/2/4 197/2/4 200/2/4
f 198/2/4 199/2/4 201/2/4
f 201/2/4 199/2/4 202/2/4
f 198/2/4 201/2/4 203/2/4
f 203/2/4 201/2/4 204/2/4
f 205/2/4 206/2/4 207/2/4
f 207/2/4 206/2/4 208/2/4
f 209/5/4 210/5/4 211/5/4
f 211/5/4 210/5/4 212/5/4
f 211/2/4 212/2/4 213/2/4
f 213/2/4 212/2/4 214/2/4
f 211/2/4 213/2/4 215/2/4
f 213/1/4 214/1/4 215/1/4
f 214/2/4 212/2/4 216/2/4
f 215/1/4 214/1/4 216/1/4
f 211/2/4 215/2/4 217/2/4
f 215/2/4 216/2/4 217/2/4
f 216/2/4 212/2/4 218/2/4
f 217/2/4 216/2/4 218/2/4
f 211/2/4 217/2/4 219/2/4
f 217/1/4 218/1/4 219/1/4
f 218/2/4 212/2/4 220/2/4
f 219/1/4 218/1/4 220/1/4
f 211/2/4 219/2/4 221/2/4
f 219/2/4 220/2/4 221/2/4
f 220/2/4 212/2/4 222/2/4
f 221/2/4 220/2/4 222/2/4
f 221/5/4 222/5/4 223/5/4
f 223/5/4 222/5/4 224/5/4
f 229/5/5 226/5/5 225/5/5
f 230/2/5 227/2/5 226/2/5
f 230/5/5 226/5/5 229/5/5
f 231/5/5 228/5/5 227/5/5
f 231/2/5 227/2/5 230/2/5
f 232/5/5 228/5/5 231/5/5
f 235/4/5 234/4/5 233/4/5
f 236/4/5 234/4/5 235/4/5
f 241/4/5 238/4/5 237/4/5
f 242/4/5 238/4/5 241/4/5
f 243/4/5 240/4/5 239/4/5
f 244/4/5 240/4/5 243/4/5
f 247/4/5 246/4/5 245/4/5
f 248/4/5 246/4/5 247/4/5
f 250/2/6 251/2/6 253/2/6
f 253/2/6 251/2/6 254/2/6
f 249/5/6 250/5/6 255/5/6
f 250/2/6 253/2/6 255/2/6
f 255/2/6 253/2/6 256/2/6
f 254/2/6 251/2/6 257/2/6
f 251/5/6 252/5/6 258/5/6
f 257/2/6 251/2/6 258/2/6
f 249/5/6 255/5/6 259/5/6
f 258/5/6 252/5/6 262/5/6
f 259/2/6 260/2/6 263/2/6
f 261/2/6 262/2/6 264/2/6
f 249/5/6 259/5/6 265/5/6
f 259/2/6 263/2/6 266/2/6
f 265/5/6 259/5/6 266/5/6
f 263/2/6 264/2/6 266/2/6
f 264/2/6 262/2/6 267/2/6
f 266/2/6 264/2/6 267/2/6
f 262/5/6 252/5/6 267/5/6
f 267/5/6 252/5/6 268/5/6
f 269/2/6 270/2/6 273/2/6
f 273/2/6 270/2/6 274/2/6
f 271/2/6 272/2/6 275/2/6
f 275/2/6 272/2/6 276/2/6
f 277/2/6 278/2/6 282/2/6
f 282/2/6 278/2/6 283/2/6
f 279/2/6 280/2/6 284/2/6
f 284/2/6 280/2/6 285/2/6
f 281/2/6 282/2/6 287/2/6
f 287/2/6 282/2/6 288/2/6
f 285/2/6 286/2/6 289/2/6
f 289/2/6 286/2/6 290/2/6
f 288/2/6 289/2/6 291/2/6
f 291/2/6 289/2/6 292/2/6
f 293/4/6 294/4/6 295/4/6
f 295/4/6 294/4/6 296/4/6
f 297/2/6 298/2/6 301/2/6
f 301/2/6 298/2/6 302/2/6
f 299/2/6 300/2/6 303/2/6
f 303/2/6 300/2/6 304/2/6
f 305/2/6 306/2/6 307/2/6
f 307/2/6 306/2/6 308/2/6
f 309/4/6 310/4/6 313/4/6
f 313/4/6 310/4/6 314/4/6
f 311/4/6 312/4/6 315/4/6
f 315/4/6 312/4/6 316/4/6
f 314/4/6 315/4/6 318/4/6
f 318/4/6 315/4/6 319/4/6
f 317/2/6 318/2/6 321/2/6
f 319/2/6 320/2/6 321/2/6
f 318/2/6 319/2/6 321/2/6
f 321/2/6 320/2/6 322/2/6
f 317/2/6 321/2/6 323/2/6
f 322/2/6 320/2/6 324/2/6
f 317/2/6 323/2/6 325/2/6
f 323/2/6 324/2/6 325/2/6
f 324/2/6 320/2/6 326/2/6
f 325/2/6 324/2/6 326/2/6
f 327/4/6 328/4/6 329/4/6
f 329/4/6 328/4/6 330/4/6
f 331/2/6 332/2/6 333/2/6
f 333/2/6 332/2/6 334/2/6
